<svg xmlns="http://www.w3.org/2000/svg" fill-rule="nonzero" stroke-linejoin="round" stroke-miterlimit="2" viewBox="0 0 1080 500"><path d="M523.75 50.35H249.7l-8.1 100.8h10.8c6.3-72.45 13.05-87.3 81-87.3 8.1 0 19.8 0 24.3.9 9.45 1.8 9.45 6.75 9.45 17.1V318.1c0 15.3 0 21.6-47.25 21.6h-18v13.95c18.45-1.35 63.9-1.35 84.6-1.35 20.7 0 67.05 0 85.5 1.35V339.7h-18c-47.25 0-47.25-6.3-47.25-21.6V81.85c0-9 0-15.3 8.1-17.1 4.95-.9 17.1-.9 25.65-.9 67.5 0 74.25 14.85 80.55 87.3h11.25l-8.55-100.8z"/><path d="M764.95 339.25H753.7c-11.25 68.85-21.6 101.7-98.55 101.7h-59.4c-21.15 0-22.05-3.15-22.05-18v-119.7h40.05c43.65 0 48.6 14.4 48.6 52.65h11.25V237.1h-11.25c0 38.25-4.95 52.2-48.6 52.2H573.7V181.75c0-14.85.9-18 22.05-18h57.6c68.85 0 80.55 24.75 87.75 87.3h11.25l-12.6-100.8h-252v13.5h10.35c34.65 0 35.55 4.95 35.55 21.15v234.9c0 16.2-.9 21.15-35.55 21.15h-10.35v13.95h258.3l18.9-115.65z"/><path d="M900.4 180.4l61.65-90c9.45-14.4 24.75-28.8 64.8-29.25v-13.5h-107.1v13.5c18 .45 27.9 10.35 27.9 20.7 0 4.5-.9 5.4-4.05 10.35l-51.3 75.6-57.6-86.4c-.9-1.35-3.15-4.95-3.15-6.75 0-5.4 9.9-13.05 28.8-13.5v-13.5C845.05 49 812.2 49 795.1 49c-13.95 0-41.85-.45-58.5-1.35v13.5h8.55c24.75 0 33.3 3.15 41.85 15.75l82.35 124.65L796 310c-6.3 9-19.8 29.7-64.8 29.7v13.95h107.1V339.7c-20.7-.45-28.35-12.6-28.35-20.7 0-4.05 1.35-5.85 4.5-10.8l63.45-94.05 71.1 107.1c.9 1.8 2.25 3.6 2.25 4.95 0 5.4-9.9 13.05-29.25 13.5v13.95c15.75-1.35 48.6-1.35 65.25-1.35 18.9 0 39.6.45 58.5 1.35V339.7h-8.55c-23.4 0-32.85-2.25-42.3-16.2l-94.5-143.1zM33.25 159.615V149.25c23.861.648 37.896.972 42.107.972 23.645 0 39.462-.324 47.452-.972v10.365c-18.139 0-27.208 3.185-27.208 9.555 0 .864.648 2.861 1.943 5.992l63.323 167.457 60.731-159.845c1.08-3.347 1.62-5.561 1.62-6.64 0-4.427-2.024-8.233-6.073-11.418-4.049-3.185-10.068-4.885-18.058-5.101V149.25c17.275.648 29.853.972 37.735.972 11.228 0 21.971-.324 32.228-.972v10.365c-18.57.216-30.609 7.612-36.115 22.187l-74.011 194.989c-.864 2.699-1.728 4.426-2.592 5.182-.863.756-2.645 1.134-5.344 1.134-2.159 0-3.806-.432-4.939-1.296-1.134-.864-2.241-2.861-3.32-5.992L65.802 172.247c-2.159-5.938-5.182-9.528-9.069-10.77-3.887-1.241-11.715-1.862-23.483-1.862z"/></svg>